<svg viewBox="0 0 1024 1024" xmlns="http://www.w3.org/2000/svg">
  <path d="M125.28125027 160.43749973m35.15624946 0l703.12500054 0q35.15625027 0 35.15624946 35.15625027l0 0q0 35.15625027-35.15624946 35.15625027l-703.12500054 0q-35.15625027 0-35.15624946-35.15625027l0 0q0-35.15625027 35.15624946-35.15625027Z" fill="currentColor"/>
  <path d="M441.68750027 371.37499973m35.15624946 0l386.71875054 0q35.15625027 0 35.15624946 35.15625027l0 0q0 35.15625027-35.15624946 35.15625027l-386.71875054 0q-35.15625027 0-35.15624946-35.15625027l0 0q0-35.15625027 35.15624946-35.15625027Z" fill="currentColor"/>
  <path d="M441.68750027 582.31249973m35.15624946 0l386.71875054 0q35.15625027 0 35.15624946 35.15625027l0 0q0 35.15625027-35.15624946 35.15625027l-386.71875054 0q-35.15625027 0-35.15624946-35.15625027l0 0q0-35.15625027 35.15624946-35.15625027Z" fill="currentColor"/>
  <path d="M125.28125027 793.24999973m35.15624946 0l703.12500054 0q35.15625027 0 35.15624946 35.15625027l0 0q0 35.15625027-35.15624946 35.15625027l-703.12500054 0q-35.15625027 0-35.15624946-35.15625027l0 0q0-35.15625027 35.15624946-35.15625027Z" fill="currentColor"/>
  <path d="M282.95703152 378.16015625a35.15625027 35.15625027 0 0 1 44.89453098 53.92968777l-3.375 2.81249973L219.04296902 512l105.43359348 77.09765625a35.15625027 35.15625027 0 0 1 9.98437473 45.38671902l-2.35546821 3.72656196a35.15625027 35.15625027 0 0 1-45.42187554 10.01953125l-3.72656196-2.39062473-144.21093777-105.46875a35.15625027 35.15625027 0 0 1-3.375-53.96484348l3.375-2.81250054 144.21093777-105.46875z" fill="currentColor"/>
</svg>
